<svg width="168" height="150" viewBox="0 0 168 150" fill="none" xmlns="http://www.w3.org/2000/svg">
<path d="M4.61057 149.332L0.452571 146.56C-0.0754288 146.296 -0.141428 145.966 0.254571 145.57C4.74257 140.554 9.03257 134.812 13.1246 128.344C17.3486 121.744 21.2426 114.88 24.8066 107.752C28.3706 100.624 31.6706 93.4296 34.7066 86.1696C37.7426 78.7776 40.3826 71.8476 42.6266 65.3796C43.5506 63.0036 43.4846 61.2216 42.4286 60.0336C41.3726 58.7136 39.5906 58.1856 37.0826 58.4496C26.3906 59.6376 15.9626 61.2216 5.79857 63.2016C5.00657 63.4656 4.61057 63.2016 4.61057 62.4096L2.63057 57.0636C2.36657 56.4036 2.56457 56.0736 3.22457 56.0736C5.86457 55.8096 8.76857 55.5456 11.9366 55.2816C15.1046 54.8856 18.6686 54.3576 22.6286 53.6976C26.0606 53.1696 29.5586 52.7076 33.1226 52.3116C36.8186 51.7836 40.4486 51.3216 44.0126 50.9256C46.3886 50.6616 47.9066 49.4076 48.5666 47.1636C50.6786 39.9036 52.5266 32.6436 54.1106 25.3836C55.8266 18.1236 57.0146 10.7316 57.6746 3.20759C57.9386 0.8316 59.1926 -0.224397 61.4366 0.0395992C62.4926 0.303596 63.2846 0.831597 63.8126 1.6236C64.4726 2.2836 64.7366 3.1416 64.6046 4.1976C63.9446 11.0616 62.8886 17.8596 61.4366 24.5916C60.1166 31.1916 58.5326 37.7916 56.6846 44.3916C56.1566 45.9756 56.2226 47.2296 56.8826 48.1536C57.6746 49.0776 58.9286 49.4076 60.6446 49.1436L66.1886 48.7476C68.0366 48.6156 69.6866 48.5496 71.1386 48.5496C72.7226 48.4176 74.2406 48.3516 75.6926 48.3516C82.8206 48.3516 88.1006 50.0016 91.5326 53.3016C95.0966 56.4696 97.2086 61.6176 97.8686 68.7456C98.6606 76.4016 97.4726 87.4896 94.3046 102.01C92.8526 108.874 91.2026 115.012 89.3546 120.424C87.5066 125.704 85.4606 130.258 83.2166 134.086C78.7286 142.006 72.0626 145.966 63.2186 145.966C59.6546 145.966 56.2886 145.57 53.1206 144.778C50.0846 143.854 47.1146 142.336 44.2106 140.224C43.1546 139.564 42.7586 138.508 43.0226 137.056L43.2206 135.274L43.4186 134.878V133.096C43.6826 131.908 44.2106 131.71 45.0026 132.502C48.0386 134.614 50.6786 136.132 52.9226 137.056C55.6946 138.376 58.9946 139.036 62.8226 139.036C69.5546 139.036 74.6366 135.934 78.0686 129.73C79.6526 126.958 81.1706 123.262 82.6226 118.642C84.2066 113.89 85.5926 108.94 86.7806 103.792C88.1006 98.6436 89.1566 93.5616 89.9486 88.5456C90.7406 83.5296 91.2026 79.3716 91.3346 76.0716C91.5986 70.1316 91.0046 65.6436 89.5526 62.6076C88.1006 59.5716 86.1206 57.5916 83.6126 56.6676C81.2366 55.7436 78.5306 55.2816 75.4946 55.2816C74.0426 55.2816 72.4586 55.3476 70.7426 55.4796C69.0266 55.4796 67.1786 55.5456 65.1986 55.6776L56.2886 56.4696C55.2326 56.4696 54.2426 56.7996 53.3186 57.4596C52.5266 58.1196 51.9326 58.9776 51.5366 60.0336C49.4246 66.6336 46.7186 74.0256 43.4186 82.2096C40.2506 90.3936 36.6866 98.5776 32.7266 106.762C28.7666 114.946 24.4766 122.8 19.8566 130.324C15.3686 137.848 10.6826 144.184 5.79857 149.332C5.40257 149.728 5.00657 149.728 4.61057 149.332ZM162.417 25.7796C161.361 24.9876 160.239 24.2616 159.051 23.6016C157.995 22.8096 156.741 22.0176 155.289 21.2256C151.197 19.1136 147.105 17.0676 143.013 15.0876C141.561 14.4276 140.175 13.8336 138.855 13.3056C137.535 12.6456 136.281 12.1176 135.093 11.7216C133.113 11.0616 132.651 9.8076 133.707 7.9596C134.763 6.2436 136.281 5.7816 138.261 6.5736C140.109 7.2336 141.957 8.0256 143.805 8.9496C145.653 9.7416 147.501 10.5996 149.349 11.5236L155.685 14.6916C156.213 14.9556 156.741 15.2196 157.269 15.4836C157.797 15.7476 158.325 16.0116 158.853 16.2756C160.173 17.0676 161.361 17.7936 162.417 18.4536C163.605 19.1136 164.727 19.7736 165.783 20.4336C167.499 21.4896 167.829 22.9416 166.773 24.7896C165.585 26.5056 164.133 26.8356 162.417 25.7796ZM152.517 43.4016C150.801 41.9496 148.491 40.3656 145.587 38.6496C143.607 37.4616 141.627 36.3396 139.647 35.2836C137.667 34.0956 135.687 32.9736 133.707 31.9176C132.255 31.2576 130.869 30.5976 129.549 29.9376C128.229 29.2776 126.975 28.7496 125.787 28.3536C123.939 27.4296 123.609 26.1756 124.797 24.5916C125.985 22.7436 127.437 22.2816 129.153 23.2056C130.341 23.7336 131.529 24.3276 132.717 24.9876C134.037 25.5156 135.423 26.1756 136.875 26.9676C140.175 28.6836 143.409 30.5316 146.577 32.5116C149.877 34.3596 153.111 36.2076 156.279 38.0556C157.995 39.2436 158.259 40.7616 157.071 42.6096C155.883 44.4576 154.365 44.7216 152.517 43.4016ZM157.269 92.5056C156.213 91.0536 155.091 89.6016 153.903 88.1496C152.847 86.5656 151.659 84.9816 150.339 83.3976C146.379 79.0416 142.353 74.8836 138.261 70.9236C134.169 66.8316 129.879 62.8716 125.391 59.0436C123.807 57.8556 122.289 56.7336 120.837 55.6776C119.385 54.4896 117.933 53.4336 116.481 52.5096C114.633 51.3216 114.501 49.8696 116.085 48.1536C116.745 47.4936 117.537 47.0976 118.461 46.9656C119.385 46.7016 120.243 46.8996 121.035 47.5596C125.259 50.1996 129.285 53.2356 133.113 56.6676C136.941 59.9676 140.637 63.3336 144.201 66.7656C148.425 71.1216 152.385 75.2796 156.081 79.2396C157.269 80.6916 158.391 82.0776 159.447 83.3976C160.503 84.7176 161.493 85.9716 162.417 87.1596C163.869 89.1396 163.737 90.9876 162.021 92.7036C160.437 94.5516 158.853 94.4856 157.269 92.5056Z" fill="#309E66"/>
</svg>
