<svg width="121" height="169" viewBox="0 0 121 169" fill="none" xmlns="http://www.w3.org/2000/svg">
<path d="M65.8874 167.904C64.5674 165.396 62.9834 162.69 61.1354 159.786C59.4194 157.014 57.4394 153.978 55.1954 150.678C47.5394 139.986 39.7514 129.36 31.8314 118.8C23.9114 108.24 15.3974 98.208 6.28941 88.704C4.83742 87.252 3.64941 85.866 2.72541 84.546C1.93341 83.094 1.27341 81.84 0.74541 80.784C-0.310588 78.54 -0.244588 76.296 0.943412 74.052C1.86741 72.072 4.11141 69.3 7.67541 65.736C15.9914 57.42 23.9774 48.972 31.6334 40.392C39.4214 31.812 46.8794 22.836 54.0074 13.464C55.5914 11.22 57.0434 9.174 58.3634 7.326C59.6834 5.478 60.8714 3.696 61.9274 1.98C62.7194 0.659999 63.7754 0 65.0954 0C65.8874 0 66.5474 0.198001 67.0754 0.594004C69.1874 2.046 69.5834 3.828 68.2634 5.94001C64.5674 11.484 60.4754 17.16 55.9874 22.968C51.4994 28.776 46.8134 34.518 41.9294 40.194C37.0454 45.738 32.0294 51.15 26.8814 56.43C21.7334 61.71 16.6514 66.66 11.6354 71.28C9.12741 73.656 7.87341 75.768 7.87341 77.616C7.87341 79.596 8.99541 81.708 11.2394 83.952C20.4794 93.588 29.1254 103.62 37.1774 114.048C45.2294 124.476 53.1494 135.102 60.9374 145.926C63.1814 149.226 65.2274 152.262 67.0754 155.034C68.9234 157.806 70.5734 160.446 72.0254 162.954C72.5534 163.482 72.4874 163.944 71.8274 164.34L71.2334 165.132L67.2734 168.3C66.8774 168.696 66.4154 168.564 65.8874 167.904ZM115.585 44.55C114.661 43.494 113.671 42.504 112.615 41.58C111.691 40.524 110.701 39.468 109.645 38.412C107.929 36.828 106.213 35.31 104.497 33.858C102.913 32.274 101.263 30.756 99.5474 29.304C98.2274 28.248 96.9734 27.324 95.7854 26.532C94.7294 25.608 93.6734 24.816 92.6174 24.156C91.0334 22.968 90.9674 21.648 92.4194 20.196C93.0794 19.536 93.8054 19.206 94.5974 19.206C95.5214 19.074 96.3794 19.272 97.1714 19.8C101.263 23.1 105.157 26.4 108.853 29.7C112.681 33 116.443 36.498 120.139 40.194C120.799 40.854 121.063 41.646 120.931 42.57C120.931 43.362 120.601 44.088 119.941 44.748C118.357 46.332 116.905 46.266 115.585 44.55ZM101.725 59.202C99.3494 56.298 96.8414 53.592 94.2014 51.084C91.5614 48.444 88.9214 45.804 86.2814 43.164C83.9054 41.184 81.7274 39.402 79.7474 37.818C78.1634 36.63 78.0974 35.31 79.5494 33.858C80.8694 32.274 82.4534 32.208 84.3014 33.66C85.2254 34.452 86.2154 35.31 87.2714 36.234C88.3274 37.158 89.5154 38.148 90.8354 39.204C91.2314 39.6 91.6274 39.996 92.0234 40.392C92.5514 40.788 93.0134 41.25 93.4094 41.778L98.5574 46.53C100.009 47.982 101.329 49.368 102.517 50.688C103.837 52.008 105.157 53.394 106.477 54.846C107.929 56.43 107.863 58.014 106.279 59.598C104.563 61.05 103.045 60.918 101.725 59.202Z" fill="#309E66"/>
</svg>
