<svg width="170" height="179" viewBox="0 0 170 179" fill="none" xmlns="http://www.w3.org/2000/svg">
<path d="M80.982 174.636V140.778C80.982 136.026 79.728 133.65 77.22 133.65C75.9 133.65 73.986 134.574 71.478 136.422C61.974 143.946 51.81 150.678 40.986 156.618C30.162 162.558 18.942 167.442 7.326 171.27C5.082 171.93 3.234 171.336 1.782 169.488C0.197998 167.508 0.593999 166.188 2.97 165.528C14.982 161.832 26.598 156.882 37.818 150.678C49.038 144.342 59.664 137.412 69.696 129.888C71.94 128.172 72.864 126.786 72.468 125.73C72.072 124.542 70.488 123.948 67.716 123.948H3.366C1.122 123.948 0 122.826 0 120.582C0 118.338 1.122 117.216 3.366 117.216H75.636C77.22 117.216 78.474 116.754 79.398 115.83C80.454 114.774 80.982 113.454 80.982 111.87V103.95C80.982 102.366 80.454 101.112 79.398 100.188C78.474 99.132 77.22 98.604 75.636 98.604H20.988C18.612 98.604 17.424 97.416 17.424 95.04C17.424 92.796 18.612 91.674 20.988 91.674H75.636C77.22 91.674 78.474 91.212 79.398 90.288C80.454 89.232 80.982 87.912 80.982 86.328V79.398C80.982 77.814 80.454 76.56 79.398 75.636C78.474 74.58 77.22 74.052 75.636 74.052H13.86C11.616 74.052 10.494 72.93 10.494 70.686C10.494 68.442 11.616 67.32 13.86 67.32H50.49C54.582 67.32 55.77 65.472 54.054 61.776C51.942 57.024 49.368 52.47 46.332 48.114C45.144 46.53 43.692 45.738 41.976 45.738H3.366C1.122 45.738 0 44.616 0 42.372C0 40.128 1.122 39.006 3.366 39.006H59.202C60.786 39.006 62.04 38.544 62.964 37.62C64.02 36.564 64.548 35.244 64.548 33.66V3.564C64.548 1.188 65.736 0 68.112 0C70.488 0 71.676 1.188 71.676 3.564V33.66C71.676 35.244 72.138 36.564 73.062 37.62C74.118 38.544 75.438 39.006 77.022 39.006H92.268C93.852 39.006 95.106 38.544 96.03 37.62C97.086 36.564 97.614 35.244 97.614 33.66V3.564C97.614 1.188 98.802 0 101.178 0C103.554 0 104.742 1.188 104.742 3.564V33.66C104.742 35.244 105.204 36.564 106.128 37.62C107.184 38.544 108.504 39.006 110.088 39.006H165.528C167.772 39.006 168.894 40.128 168.894 42.372C168.894 44.616 167.772 45.738 165.528 45.738H127.908C125.4 45.738 123.684 46.86 122.76 49.104C122.232 50.424 121.704 51.744 121.176 53.064C120.648 54.252 120.054 55.506 119.394 56.826C118.866 57.882 118.338 58.872 117.81 59.796C117.414 60.588 117.018 61.38 116.622 62.172C115.698 63.756 115.5 65.01 116.028 65.934C116.556 66.858 117.744 67.32 119.592 67.32H155.034C157.278 67.32 158.4 68.442 158.4 70.686C158.4 72.93 157.278 74.052 155.034 74.052H93.456C91.872 74.052 90.552 74.58 89.496 75.636C88.572 76.56 88.11 77.814 88.11 79.398V86.328C88.11 87.912 88.572 89.232 89.496 90.288C90.552 91.212 91.872 91.674 93.456 91.674H148.104C150.348 91.674 151.47 92.796 151.47 95.04C151.47 97.416 150.348 98.604 148.104 98.604H93.456C91.872 98.604 90.552 99.132 89.496 100.188C88.572 101.112 88.11 102.366 88.11 103.95V111.87C88.11 113.454 88.572 114.774 89.496 115.83C90.552 116.754 91.872 117.216 93.456 117.216H165.726C167.97 117.216 169.092 118.338 169.092 120.582C169.092 122.826 167.97 123.948 165.726 123.948H100.584C97.812 123.948 96.162 124.476 95.634 125.532C95.238 126.588 96.162 127.974 98.406 129.69C108.306 137.214 118.8 144.078 129.888 150.282C140.976 156.354 152.526 161.238 164.538 164.934C166.782 165.594 167.376 166.98 166.32 169.092C165 171.336 163.152 171.996 160.776 171.072C149.688 167.64 138.6 162.888 127.512 156.816C116.556 150.744 106.59 143.946 97.614 136.422C95.37 134.574 93.456 133.65 91.872 133.65C89.364 133.65 88.11 136.026 88.11 140.778V174.636C88.11 177.012 86.922 178.2 84.546 178.2C82.17 178.2 80.982 177.012 80.982 174.636ZM40.392 32.868C39.864 31.944 39.336 31.02 38.808 30.096C38.28 29.04 37.686 27.984 37.026 26.928L30.492 16.434C29.7 15.378 28.908 14.322 28.116 13.266C27.456 12.21 26.796 11.22 26.136 10.296C24.42 8.31601 24.684 6.66601 26.928 5.346C27.72 4.95001 28.512 4.75201 29.304 4.75201C30.756 4.75201 31.878 5.34601 32.67 6.53401C33.33 7.45801 33.99 8.44801 34.65 9.50401C35.31 10.56 36.036 11.682 36.828 12.87L43.362 23.958L46.332 29.502C47.388 31.482 46.926 33 44.946 34.056C44.022 34.716 43.164 34.914 42.372 34.65C41.58 34.386 40.92 33.792 40.392 32.868ZM122.364 34.848C120.384 33.66 120.186 32.274 121.77 30.69C122.562 29.766 123.354 28.842 124.146 27.918C124.938 26.994 125.73 25.938 126.522 24.75C128.634 21.978 130.614 19.206 132.462 16.434C134.31 13.53 136.092 10.56 137.808 7.52401C139.128 5.41201 140.91 4.884 143.154 5.94001C145.398 7.12801 145.86 8.84401 144.54 11.088C143.616 12.672 142.428 14.52 140.976 16.632C139.524 18.612 138.006 20.724 136.422 22.968C134.97 25.08 133.452 27.126 131.868 29.106C130.416 31.086 129.03 32.736 127.71 34.056C127.05 34.848 126.192 35.31 125.136 35.442C124.212 35.574 123.288 35.376 122.364 34.848ZM67.716 67.32H102.762C104.742 67.32 106.26 66.462 107.316 64.746C107.976 63.558 108.636 62.304 109.296 60.984C110.088 59.664 110.814 58.278 111.474 56.826C112.002 55.902 112.464 55.044 112.86 54.252C113.256 53.328 113.652 52.404 114.048 51.48C114.84 49.764 114.84 48.378 114.048 47.322C113.388 46.266 112.134 45.738 110.286 45.738H59.4C57.552 45.738 56.298 46.266 55.638 47.322C54.978 48.246 55.176 49.566 56.232 51.282L59.202 57.024C59.862 58.344 60.456 59.598 60.984 60.786C61.644 61.842 62.238 62.898 62.766 63.954C63.69 66.198 65.34 67.32 67.716 67.32Z" fill="#309E66"/>
</svg>
