<svg width="173" height="337" viewBox="0 0 173 337" fill="none" xmlns="http://www.w3.org/2000/svg">
<path d="M134.753 332.044C129.737 332.836 124.787 333.562 119.903 334.222C115.019 334.882 110.201 335.41 105.449 335.806C95.1532 336.73 85.5832 336.928 76.7392 336.4C71.1952 336.004 65.7172 335.278 60.3052 334.222C54.8932 333.034 50.0092 331.186 45.6532 328.678C41.4292 326.038 37.9972 322.672 35.3572 318.58C32.7172 314.356 31.3972 309.01 31.3972 302.542C31.3972 297.394 32.7832 292.708 35.5552 288.484C38.3272 284.128 41.7592 280.234 45.8512 276.802C50.0752 273.37 54.5632 270.334 59.3152 267.694C64.1992 265.054 68.6872 262.744 72.7792 260.764C74.4952 260.104 75.5512 259.048 75.9472 257.596C76.4752 256.144 76.3432 254.626 75.5512 253.042C73.5712 248.29 71.9872 243.274 70.7992 237.994C69.7432 232.582 68.9512 227.038 68.4232 221.362C68.0272 215.686 67.7632 210.076 67.6312 204.532C67.4992 198.988 67.4332 193.642 67.4332 188.494C67.4332 185.722 68.8192 184.336 71.5912 184.336C74.3632 184.336 75.6172 185.722 75.3532 188.494C75.0892 192.322 74.8912 196.15 74.7592 199.978C74.6272 203.806 74.6932 207.634 74.9572 211.462C75.0892 217.93 75.7492 224.794 76.9372 232.054C78.1252 239.314 80.0392 245.914 82.6792 251.854C83.2072 253.042 84.0652 253.9 85.2532 254.428C86.4412 254.824 87.6952 254.758 89.0152 254.23C94.4272 252.118 99.8392 250.336 105.251 248.884C110.663 247.3 116.141 245.782 121.685 244.33C122.873 244.066 123.929 244.198 124.853 244.726C125.909 245.254 126.701 246.046 127.229 247.102C128.153 249.478 127.295 250.996 124.655 251.656C118.583 252.712 111.851 254.23 104.459 256.21C97.0672 258.19 89.6752 260.632 82.2832 263.536C74.8912 266.44 67.8952 269.872 61.2952 273.832C54.8272 277.66 49.4812 282.016 45.2572 286.9C40.6372 292.312 38.3272 297.46 38.3272 302.344C38.3272 308.284 39.9112 313.036 43.0792 316.6C46.2472 320.164 50.1412 322.936 54.7612 324.916C59.5132 326.896 64.5952 328.216 70.0072 328.876C75.5512 329.404 80.6332 329.668 85.2532 329.668C93.9652 329.668 102.545 329.14 110.993 328.084C119.573 326.896 128.087 325.51 136.535 323.926C137.987 323.662 138.515 324.19 138.119 325.51L137.525 327.292V327.49L137.327 327.688V327.886L137.129 329.668C136.865 330.988 136.073 331.78 134.753 332.044Z" fill="#309E66"/>
<path d="M0.707144 166.914C0.0471435 165.858 -0.150857 164.868 0.113142 163.944C0.509143 163.02 1.23514 162.294 2.29114 161.766C14.1711 156.618 24.9951 150.546 34.7631 143.55C44.6631 136.422 53.1111 128.304 60.1071 119.196C67.2351 110.088 72.7131 99.924 76.5411 88.704C80.5011 77.484 82.4811 65.142 82.4811 51.678V3.564C82.4811 1.188 83.7351 0 86.2431 0C88.6191 0 89.8072 1.188 89.8072 3.564V49.698C89.8072 61.05 91.9851 72.468 96.3411 83.952C100.829 95.304 106.769 105.996 114.161 116.028C121.553 125.928 130.067 134.772 139.703 142.56C149.471 150.348 159.635 156.354 170.195 160.578C172.835 161.634 173.429 163.416 171.977 165.924C170.921 167.376 169.601 168.102 168.017 168.102C167.225 168.102 166.433 167.904 165.641 167.508C150.065 159.72 136.073 149.886 123.665 138.006C111.389 126.126 101.687 112.2 94.5592 96.228C92.0512 90.42 89.7411 87.516 87.6291 87.516C85.7811 87.516 83.6691 90.552 81.2931 96.624C77.9931 105.072 73.7691 112.86 68.6211 119.988C63.4731 127.116 57.5991 133.65 50.9991 139.59C44.5311 145.53 37.4691 150.942 29.8131 155.826C22.2891 160.578 14.5011 164.802 6.44914 168.498C3.94114 169.686 2.02714 169.158 0.707144 166.914Z" fill="#309E66"/>
</svg>
