<svg width="173" height="170" viewBox="0 0 173 170" fill="none" xmlns="http://www.w3.org/2000/svg">
<path d="M0.707143 166.914C0.047143 165.858 -0.150857 164.868 0.113143 163.944C0.509143 163.02 1.23514 162.294 2.29114 161.766C14.1711 156.618 24.9951 150.546 34.7631 143.55C44.6631 136.422 53.1111 128.304 60.1071 119.196C67.2351 110.088 72.7131 99.924 76.5411 88.704C80.5011 77.484 82.4811 65.142 82.4811 51.678V3.564C82.4811 1.188 83.7351 0 86.2431 0C88.6191 0 89.8072 1.188 89.8072 3.564V49.698C89.8072 61.05 91.9851 72.468 96.3411 83.952C100.829 95.304 106.769 105.996 114.161 116.028C121.553 125.928 130.067 134.772 139.703 142.56C149.471 150.348 159.635 156.354 170.195 160.578C172.835 161.634 173.429 163.416 171.977 165.924C170.921 167.376 169.601 168.102 168.017 168.102C167.225 168.102 166.433 167.904 165.641 167.508C150.065 159.72 136.073 149.886 123.665 138.006C111.389 126.126 101.687 112.2 94.5592 96.228C92.0512 90.42 89.7411 87.516 87.6291 87.516C85.7811 87.516 83.6691 90.552 81.2931 96.624C77.9931 105.072 73.7691 112.86 68.6211 119.988C63.4731 127.116 57.5991 133.65 50.9991 139.59C44.5311 145.53 37.4691 150.942 29.8131 155.826C22.2891 160.578 14.5011 164.802 6.44914 168.498C3.94114 169.686 2.02714 169.158 0.707143 166.914Z" fill="#309E66"/>
</svg>
