<svg width="180" height="179" viewBox="0 0 180 179" fill="none" xmlns="http://www.w3.org/2000/svg">
<path d="M32.175 62.37V23.166C32.175 21.582 32.637 20.328 33.561 19.404C34.617 18.348 35.937 17.82 37.521 17.82H67.419C69.003 17.82 70.257 17.358 71.181 16.434C72.237 15.378 72.765 14.058 72.765 12.474V3.564C72.765 1.188 73.953 0 76.329 0C78.705 0 79.893 1.188 79.893 3.564V12.474C79.893 14.058 80.355 15.378 81.279 16.434C82.335 17.358 83.655 17.82 85.239 17.82H107.019C108.603 17.82 109.857 17.358 110.781 16.434C111.837 15.378 112.365 14.058 112.365 12.474V3.564C112.365 1.188 113.553 0 115.929 0C118.305 0 119.493 1.188 119.493 3.564V12.474C119.493 14.058 119.955 15.378 120.879 16.434C121.935 17.358 123.255 17.82 124.839 17.82H154.737C156.321 17.82 157.575 18.348 158.499 19.404C159.555 20.328 160.083 21.582 160.083 23.166V62.37C160.083 63.954 159.555 65.274 158.499 66.33C157.575 67.254 156.321 67.716 154.737 67.716H37.521C35.937 67.716 34.617 67.254 33.561 66.33C32.637 65.274 32.175 63.954 32.175 62.37ZM44.649 39.798H67.419C69.003 39.798 70.257 39.336 71.181 38.412C72.237 37.356 72.765 36.036 72.765 34.452V29.106C72.765 27.522 72.237 26.268 71.181 25.344C70.257 24.288 69.003 23.76 67.419 23.76H44.649C43.065 23.76 41.745 24.288 40.689 25.344C39.765 26.268 39.303 27.522 39.303 29.106V34.452C39.303 36.036 39.765 37.356 40.689 38.412C41.745 39.336 43.065 39.798 44.649 39.798ZM124.839 39.798H147.609C149.193 39.798 150.447 39.336 151.371 38.412C152.427 37.356 152.955 36.036 152.955 34.452V29.106C152.955 27.522 152.427 26.268 151.371 25.344C150.447 24.288 149.193 23.76 147.609 23.76H124.839C123.255 23.76 121.935 24.288 120.879 25.344C119.955 26.268 119.493 27.522 119.493 29.106V34.452C119.493 36.036 119.955 37.356 120.879 38.412C121.935 39.336 123.255 39.798 124.839 39.798ZM85.239 39.798H107.019C108.603 39.798 109.857 39.336 110.781 38.412C111.837 37.356 112.365 36.036 112.365 34.452V29.106C112.365 27.522 111.837 26.268 110.781 25.344C109.857 24.288 108.603 23.76 107.019 23.76H85.239C83.655 23.76 82.335 24.288 81.279 25.344C80.355 26.268 79.893 27.522 79.893 29.106V34.452C79.893 36.036 80.355 37.356 81.279 38.412C82.335 39.336 83.655 39.798 85.239 39.798ZM44.649 61.776H67.419C69.003 61.776 70.257 61.314 71.181 60.39C72.237 59.334 72.765 58.014 72.765 56.43V50.886C72.765 49.302 72.237 48.048 71.181 47.124C70.257 46.068 69.003 45.54 67.419 45.54H44.649C43.065 45.54 41.745 46.068 40.689 47.124C39.765 48.048 39.303 49.302 39.303 50.886V56.43C39.303 58.014 39.765 59.334 40.689 60.39C41.745 61.314 43.065 61.776 44.649 61.776ZM124.839 61.776H147.609C149.193 61.776 150.447 61.314 151.371 60.39C152.427 59.334 152.955 58.014 152.955 56.43V50.886C152.955 49.302 152.427 48.048 151.371 47.124C150.447 46.068 149.193 45.54 147.609 45.54H124.839C123.255 45.54 121.935 46.068 120.879 47.124C119.955 48.048 119.493 49.302 119.493 50.886V56.43C119.493 58.014 119.955 59.334 120.879 60.39C121.935 61.314 123.255 61.776 124.839 61.776ZM85.239 61.776H107.019C108.603 61.776 109.857 61.314 110.781 60.39C111.837 59.334 112.365 58.014 112.365 56.43V50.886C112.365 49.302 111.837 48.048 110.781 47.124C109.857 46.068 108.603 45.54 107.019 45.54H85.239C83.655 45.54 82.335 46.068 81.279 47.124C80.355 48.048 79.893 49.302 79.893 50.886V56.43C79.893 58.014 80.355 59.334 81.279 60.39C82.335 61.314 83.655 61.776 85.239 61.776ZM173.745 178.398C166.485 176.418 159.291 174.042 152.163 171.27C145.167 168.498 138.501 165.198 132.165 161.37C125.829 157.41 119.889 152.922 114.345 147.906C108.933 142.89 104.049 137.148 99.693 130.68C98.505 129.096 96.987 128.304 95.139 128.304H78.705C77.121 128.304 75.801 128.832 74.745 129.888C73.821 130.812 73.359 132.066 73.359 133.65V160.38C73.359 162.228 73.953 163.68 75.141 164.736C76.329 165.66 77.847 165.924 79.695 165.528C82.071 165 84.447 164.538 86.823 164.142C89.199 163.614 91.509 163.086 93.753 162.558C95.997 162.03 98.109 161.568 100.089 161.172C102.201 160.776 104.049 160.314 105.633 159.786C107.745 159.39 108.801 160.182 108.801 162.162C108.801 163.218 108.537 164.076 108.009 164.736C107.481 165.528 106.689 166.056 105.633 166.32C103.785 166.848 101.739 167.31 99.495 167.706C97.383 168.234 95.139 168.828 92.763 169.488C89.463 170.148 86.163 170.808 82.863 171.468C79.563 172.128 76.197 172.788 72.765 173.448C67.749 174.372 62.667 175.23 57.519 176.022C52.371 176.814 47.289 177.54 42.273 178.2C40.029 178.464 38.709 177.474 38.313 175.23C38.049 174.174 38.115 173.316 38.511 172.656C39.039 172.128 39.831 171.798 40.887 171.666C42.339 171.402 43.857 171.204 45.441 171.072C47.157 170.94 48.939 170.742 50.787 170.478C52.635 170.214 54.483 169.884 56.331 169.488C58.179 169.224 60.027 168.96 61.875 168.696C63.195 168.432 64.251 167.838 65.043 166.914C65.835 165.99 66.231 164.802 66.231 163.35V133.65C66.231 132.066 65.703 130.812 64.647 129.888C63.723 128.832 62.469 128.304 60.885 128.304H35.343C32.439 128.304 30.657 129.822 29.997 132.858C28.149 141.438 25.311 149.226 21.483 156.222C17.655 163.218 12.573 169.752 6.237 175.824C4.521 177.408 2.871 177.408 1.287 175.824C-0.429 174.108 -0.429 172.458 1.287 170.874C6.171 166.386 10.131 161.568 13.167 156.42C16.335 151.272 18.777 145.86 20.493 140.184C22.341 134.508 23.595 128.634 24.255 122.562C25.047 116.358 25.443 110.088 25.443 103.752V88.704C25.443 87.12 25.905 85.866 26.829 84.942C27.885 83.886 29.205 83.358 30.789 83.358H175.725C177.573 83.358 178.497 84.282 178.497 86.13C178.497 87.978 177.573 88.902 175.725 88.902H37.917C36.333 88.902 35.013 89.43 33.957 90.486C33.033 91.41 32.571 92.664 32.571 94.248V103.752L32.373 113.652C32.373 114.444 32.307 115.236 32.175 116.028C32.175 116.82 32.175 117.546 32.175 118.206C31.779 121.242 33.099 122.76 36.135 122.76H176.121C177.969 122.76 178.893 123.684 178.893 125.532C178.893 127.38 177.969 128.304 176.121 128.304H112.167C110.055 128.304 108.669 128.832 108.009 129.888C107.481 130.944 107.943 132.33 109.395 134.046C110.055 134.838 111.045 136.026 112.365 137.61C113.685 139.062 115.137 140.58 116.721 142.164C118.305 143.616 119.889 144.936 121.473 146.124C123.057 147.18 124.311 147.708 125.235 147.708C126.555 147.708 127.611 147.312 128.403 146.52C133.551 142.824 138.303 138.798 142.659 134.442C144.243 133.122 145.827 133.122 147.411 134.442C148.071 135.102 148.335 135.894 148.203 136.818C148.203 137.61 147.873 138.336 147.213 138.996C146.157 140.052 145.101 141.042 144.045 141.966C142.989 142.758 141.867 143.682 140.679 144.738C139.755 145.398 138.831 146.124 137.907 146.916C137.115 147.576 136.323 148.236 135.531 148.896C134.079 149.952 133.353 151.14 133.353 152.46C133.353 153.78 134.145 154.968 135.729 156.024C142.065 159.852 148.731 163.086 155.727 165.726C162.723 168.366 169.851 170.412 177.111 171.864C179.487 172.524 180.147 173.91 179.091 176.022C177.771 178.002 175.989 178.794 173.745 178.398ZM48.807 106.524C48.807 104.676 49.731 103.752 51.579 103.752H148.005C149.853 103.752 150.777 104.676 150.777 106.524C150.777 108.372 149.853 109.296 148.005 109.296H51.579C49.731 109.296 48.807 108.372 48.807 106.524Z" fill="#309E66"/>
</svg>
