<svg width="181" height="540" viewBox="0 0 181 540" fill="none" xmlns="http://www.w3.org/2000/svg">
<path d="M144.441 534.598C139.425 535.39 134.475 536.116 129.591 536.776C124.707 537.436 119.889 537.964 115.137 538.36C104.841 539.284 95.271 539.482 86.427 538.954C80.883 538.558 75.405 537.832 69.993 536.776C64.581 535.588 59.697 533.74 55.341 531.232C51.117 528.592 47.685 525.226 45.045 521.134C42.405 516.91 41.085 511.564 41.085 505.096C41.085 499.948 42.471 495.262 45.243 491.038C48.015 486.682 51.447 482.788 55.539 479.356C59.763 475.924 64.251 472.888 69.003 470.248C73.887 467.608 78.375 465.298 82.467 463.318C84.183 462.658 85.239 461.602 85.635 460.15C86.163 458.698 86.031 457.18 85.239 455.596C83.259 450.844 81.675 445.828 80.487 440.548C79.431 435.136 78.639 429.592 78.111 423.916C77.715 418.24 77.451 412.63 77.319 407.086C77.187 401.542 77.121 396.196 77.121 391.048C77.121 388.276 78.507 386.89 81.279 386.89C84.051 386.89 85.305 388.276 85.041 391.048C84.777 394.876 84.579 398.704 84.447 402.532C84.315 406.36 84.381 410.188 84.645 414.016C84.777 420.484 85.437 427.348 86.625 434.608C87.813 441.868 89.727 448.468 92.367 454.408C92.895 455.596 93.753 456.454 94.941 456.982C96.129 457.378 97.383 457.312 98.703 456.784C104.115 454.672 109.527 452.89 114.939 451.438C120.351 449.854 125.829 448.336 131.373 446.884C132.561 446.62 133.617 446.752 134.541 447.28C135.597 447.808 136.389 448.6 136.917 449.656C137.841 452.032 136.983 453.55 134.343 454.21C128.271 455.266 121.539 456.784 114.147 458.764C106.755 460.744 99.363 463.186 91.971 466.09C84.579 468.994 77.583 472.426 70.983 476.386C64.515 480.214 59.169 484.57 54.945 489.454C50.325 494.866 48.015 500.014 48.015 504.898C48.015 510.838 49.599 515.59 52.767 519.154C55.935 522.718 59.829 525.49 64.449 527.47C69.201 529.45 74.283 530.77 79.695 531.43C85.239 531.958 90.321 532.222 94.941 532.222C103.653 532.222 112.233 531.694 120.681 530.638C129.261 529.45 137.775 528.064 146.223 526.48C147.675 526.216 148.203 526.744 147.807 528.064L147.213 529.846V530.044L147.015 530.242V530.44L146.817 532.222C146.553 533.542 145.761 534.334 144.441 534.598Z" fill="#309E66"/>
<path d="M92.169 363.428V329.57C92.169 324.818 90.915 322.442 88.407 322.442C87.087 322.442 85.173 323.366 82.665 325.214C73.161 332.738 62.997 339.47 52.173 345.41C41.349 351.35 30.129 356.234 18.513 360.062C16.269 360.722 14.421 360.128 12.969 358.28C11.385 356.3 11.781 354.98 14.157 354.32C26.169 350.624 37.785 345.674 49.005 339.47C60.225 333.134 70.851 326.204 80.883 318.68C83.127 316.964 84.051 315.578 83.655 314.522C83.259 313.334 81.675 312.74 78.903 312.74H14.553C12.309 312.74 11.187 311.618 11.187 309.374C11.187 307.13 12.309 306.008 14.553 306.008H86.823C88.407 306.008 89.661 305.546 90.585 304.622C91.641 303.566 92.169 302.246 92.169 300.662V292.742C92.169 291.158 91.641 289.904 90.585 288.98C89.661 287.924 88.407 287.396 86.823 287.396H32.175C29.799 287.396 28.611 286.208 28.611 283.832C28.611 281.588 29.799 280.466 32.175 280.466H86.823C88.407 280.466 89.661 280.004 90.585 279.08C91.641 278.024 92.169 276.704 92.169 275.12V268.19C92.169 266.606 91.641 265.352 90.585 264.428C89.661 263.372 88.407 262.844 86.823 262.844H25.047C22.803 262.844 21.681 261.722 21.681 259.478C21.681 257.234 22.803 256.112 25.047 256.112H61.677C65.769 256.112 66.957 254.264 65.241 250.568C63.129 245.816 60.555 241.262 57.519 236.906C56.331 235.322 54.879 234.53 53.163 234.53H14.553C12.309 234.53 11.187 233.408 11.187 231.164C11.187 228.92 12.309 227.798 14.553 227.798H70.389C71.973 227.798 73.227 227.336 74.151 226.412C75.207 225.356 75.735 224.036 75.735 222.452V192.356C75.735 189.98 76.923 188.792 79.299 188.792C81.675 188.792 82.863 189.98 82.863 192.356V222.452C82.863 224.036 83.325 225.356 84.249 226.412C85.305 227.336 86.625 227.798 88.209 227.798H103.455C105.039 227.798 106.293 227.336 107.217 226.412C108.273 225.356 108.801 224.036 108.801 222.452V192.356C108.801 189.98 109.989 188.792 112.365 188.792C114.741 188.792 115.929 189.98 115.929 192.356V222.452C115.929 224.036 116.391 225.356 117.315 226.412C118.371 227.336 119.691 227.798 121.275 227.798H176.715C178.959 227.798 180.081 228.92 180.081 231.164C180.081 233.408 178.959 234.53 176.715 234.53H139.095C136.587 234.53 134.871 235.652 133.947 237.896C133.419 239.216 132.891 240.536 132.363 241.856C131.835 243.044 131.241 244.298 130.581 245.618C130.053 246.674 129.525 247.664 128.997 248.588C128.601 249.38 128.205 250.172 127.809 250.964C126.885 252.548 126.687 253.802 127.215 254.726C127.743 255.65 128.931 256.112 130.779 256.112H166.221C168.465 256.112 169.587 257.234 169.587 259.478C169.587 261.722 168.465 262.844 166.221 262.844H104.643C103.059 262.844 101.739 263.372 100.683 264.428C99.759 265.352 99.297 266.606 99.297 268.19V275.12C99.297 276.704 99.759 278.024 100.683 279.08C101.739 280.004 103.059 280.466 104.643 280.466H159.291C161.535 280.466 162.657 281.588 162.657 283.832C162.657 286.208 161.535 287.396 159.291 287.396H104.643C103.059 287.396 101.739 287.924 100.683 288.98C99.759 289.904 99.297 291.158 99.297 292.742V300.662C99.297 302.246 99.759 303.566 100.683 304.622C101.739 305.546 103.059 306.008 104.643 306.008H176.913C179.157 306.008 180.279 307.13 180.279 309.374C180.279 311.618 179.157 312.74 176.913 312.74H111.771C108.999 312.74 107.349 313.268 106.821 314.324C106.425 315.38 107.349 316.766 109.593 318.482C119.493 326.006 129.987 332.87 141.075 339.074C152.163 345.146 163.713 350.03 175.725 353.726C177.969 354.386 178.563 355.772 177.507 357.884C176.187 360.128 174.339 360.788 171.963 359.864C160.875 356.432 149.787 351.68 138.699 345.608C127.743 339.536 117.777 332.738 108.801 325.214C106.557 323.366 104.643 322.442 103.059 322.442C100.551 322.442 99.297 324.818 99.297 329.57V363.428C99.297 365.804 98.109 366.992 95.733 366.992C93.357 366.992 92.169 365.804 92.169 363.428ZM51.579 221.66C51.051 220.736 50.523 219.812 49.995 218.888C49.467 217.832 48.873 216.776 48.213 215.72L41.679 205.226C40.887 204.17 40.095 203.114 39.303 202.058C38.643 201.002 37.983 200.012 37.323 199.088C35.607 197.108 35.871 195.458 38.115 194.138C38.907 193.742 39.699 193.544 40.491 193.544C41.943 193.544 43.065 194.138 43.857 195.326C44.517 196.25 45.177 197.24 45.837 198.296C46.497 199.352 47.223 200.474 48.015 201.662L54.549 212.75L57.519 218.294C58.575 220.274 58.113 221.792 56.133 222.848C55.209 223.508 54.351 223.706 53.559 223.442C52.767 223.178 52.107 222.584 51.579 221.66ZM133.551 223.64C131.571 222.452 131.373 221.066 132.957 219.482C133.749 218.558 134.541 217.634 135.333 216.71C136.125 215.786 136.917 214.73 137.709 213.542C139.821 210.77 141.801 207.998 143.649 205.226C145.497 202.322 147.279 199.352 148.995 196.316C150.315 194.204 152.097 193.676 154.341 194.732C156.585 195.92 157.047 197.636 155.727 199.88C154.803 201.464 153.615 203.312 152.163 205.424C150.711 207.404 149.193 209.516 147.609 211.76C146.157 213.872 144.639 215.918 143.055 217.898C141.603 219.878 140.217 221.528 138.897 222.848C138.237 223.64 137.379 224.102 136.323 224.234C135.399 224.366 134.475 224.168 133.551 223.64ZM78.903 256.112H113.949C115.929 256.112 117.447 255.254 118.503 253.538C119.163 252.35 119.823 251.096 120.483 249.776C121.275 248.456 122.001 247.07 122.661 245.618C123.189 244.694 123.651 243.836 124.047 243.044C124.443 242.12 124.839 241.196 125.235 240.272C126.027 238.556 126.027 237.17 125.235 236.114C124.575 235.058 123.321 234.53 121.473 234.53H70.587C68.739 234.53 67.485 235.058 66.825 236.114C66.165 237.038 66.363 238.358 67.419 240.074L70.389 245.816C71.049 247.136 71.643 248.39 72.171 249.578C72.831 250.634 73.425 251.69 73.953 252.746C74.877 254.99 76.527 256.112 78.903 256.112Z" fill="#309E66"/>
<path d="M32.175 62.37V23.166C32.175 21.582 32.637 20.328 33.561 19.404C34.617 18.348 35.937 17.82 37.521 17.82H67.419C69.003 17.82 70.257 17.358 71.181 16.434C72.237 15.378 72.765 14.058 72.765 12.474V3.564C72.765 1.188 73.953 0 76.329 0C78.705 0 79.893 1.188 79.893 3.564V12.474C79.893 14.058 80.355 15.378 81.279 16.434C82.335 17.358 83.655 17.82 85.239 17.82H107.019C108.603 17.82 109.857 17.358 110.781 16.434C111.837 15.378 112.365 14.058 112.365 12.474V3.564C112.365 1.188 113.553 0 115.929 0C118.305 0 119.493 1.188 119.493 3.564V12.474C119.493 14.058 119.955 15.378 120.879 16.434C121.935 17.358 123.255 17.82 124.839 17.82H154.737C156.321 17.82 157.575 18.348 158.499 19.404C159.555 20.328 160.083 21.582 160.083 23.166V62.37C160.083 63.954 159.555 65.274 158.499 66.33C157.575 67.254 156.321 67.716 154.737 67.716H37.521C35.937 67.716 34.617 67.254 33.561 66.33C32.637 65.274 32.175 63.954 32.175 62.37ZM44.649 39.798H67.419C69.003 39.798 70.257 39.336 71.181 38.412C72.237 37.356 72.765 36.036 72.765 34.452V29.106C72.765 27.522 72.237 26.268 71.181 25.344C70.257 24.288 69.003 23.76 67.419 23.76H44.649C43.065 23.76 41.745 24.288 40.689 25.344C39.765 26.268 39.303 27.522 39.303 29.106V34.452C39.303 36.036 39.765 37.356 40.689 38.412C41.745 39.336 43.065 39.798 44.649 39.798ZM124.839 39.798H147.609C149.193 39.798 150.447 39.336 151.371 38.412C152.427 37.356 152.955 36.036 152.955 34.452V29.106C152.955 27.522 152.427 26.268 151.371 25.344C150.447 24.288 149.193 23.76 147.609 23.76H124.839C123.255 23.76 121.935 24.288 120.879 25.344C119.955 26.268 119.493 27.522 119.493 29.106V34.452C119.493 36.036 119.955 37.356 120.879 38.412C121.935 39.336 123.255 39.798 124.839 39.798ZM85.239 39.798H107.019C108.603 39.798 109.857 39.336 110.781 38.412C111.837 37.356 112.365 36.036 112.365 34.452V29.106C112.365 27.522 111.837 26.268 110.781 25.344C109.857 24.288 108.603 23.76 107.019 23.76H85.239C83.655 23.76 82.335 24.288 81.279 25.344C80.355 26.268 79.893 27.522 79.893 29.106V34.452C79.893 36.036 80.355 37.356 81.279 38.412C82.335 39.336 83.655 39.798 85.239 39.798ZM44.649 61.776H67.419C69.003 61.776 70.257 61.314 71.181 60.39C72.237 59.334 72.765 58.014 72.765 56.43V50.886C72.765 49.302 72.237 48.048 71.181 47.124C70.257 46.068 69.003 45.54 67.419 45.54H44.649C43.065 45.54 41.745 46.068 40.689 47.124C39.765 48.048 39.303 49.302 39.303 50.886V56.43C39.303 58.014 39.765 59.334 40.689 60.39C41.745 61.314 43.065 61.776 44.649 61.776ZM124.839 61.776H147.609C149.193 61.776 150.447 61.314 151.371 60.39C152.427 59.334 152.955 58.014 152.955 56.43V50.886C152.955 49.302 152.427 48.048 151.371 47.124C150.447 46.068 149.193 45.54 147.609 45.54H124.839C123.255 45.54 121.935 46.068 120.879 47.124C119.955 48.048 119.493 49.302 119.493 50.886V56.43C119.493 58.014 119.955 59.334 120.879 60.39C121.935 61.314 123.255 61.776 124.839 61.776ZM85.239 61.776H107.019C108.603 61.776 109.857 61.314 110.781 60.39C111.837 59.334 112.365 58.014 112.365 56.43V50.886C112.365 49.302 111.837 48.048 110.781 47.124C109.857 46.068 108.603 45.54 107.019 45.54H85.239C83.655 45.54 82.335 46.068 81.279 47.124C80.355 48.048 79.893 49.302 79.893 50.886V56.43C79.893 58.014 80.355 59.334 81.279 60.39C82.335 61.314 83.655 61.776 85.239 61.776ZM173.745 178.398C166.485 176.418 159.291 174.042 152.163 171.27C145.167 168.498 138.501 165.198 132.165 161.37C125.829 157.41 119.889 152.922 114.345 147.906C108.933 142.89 104.049 137.148 99.693 130.68C98.505 129.096 96.987 128.304 95.139 128.304H78.705C77.121 128.304 75.801 128.832 74.745 129.888C73.821 130.812 73.359 132.066 73.359 133.65V160.38C73.359 162.228 73.953 163.68 75.141 164.736C76.329 165.66 77.847 165.924 79.695 165.528C82.071 165 84.447 164.538 86.823 164.142C89.199 163.614 91.509 163.086 93.753 162.558C95.997 162.03 98.109 161.568 100.089 161.172C102.201 160.776 104.049 160.314 105.633 159.786C107.745 159.39 108.801 160.182 108.801 162.162C108.801 163.218 108.537 164.076 108.009 164.736C107.481 165.528 106.689 166.056 105.633 166.32C103.785 166.848 101.739 167.31 99.495 167.706C97.383 168.234 95.139 168.828 92.763 169.488C89.463 170.148 86.163 170.808 82.863 171.468C79.563 172.128 76.197 172.788 72.765 173.448C67.749 174.372 62.667 175.23 57.519 176.022C52.371 176.814 47.289 177.54 42.273 178.2C40.029 178.464 38.709 177.474 38.313 175.23C38.049 174.174 38.115 173.316 38.511 172.656C39.039 172.128 39.831 171.798 40.887 171.666C42.339 171.402 43.857 171.204 45.441 171.072C47.157 170.94 48.939 170.742 50.787 170.478C52.635 170.214 54.483 169.884 56.331 169.488C58.179 169.224 60.027 168.96 61.875 168.696C63.195 168.432 64.251 167.838 65.043 166.914C65.835 165.99 66.231 164.802 66.231 163.35V133.65C66.231 132.066 65.703 130.812 64.647 129.888C63.723 128.832 62.469 128.304 60.885 128.304H35.343C32.439 128.304 30.657 129.822 29.997 132.858C28.149 141.438 25.311 149.226 21.483 156.222C17.655 163.218 12.573 169.752 6.237 175.824C4.521 177.408 2.871 177.408 1.287 175.824C-0.429 174.108 -0.429 172.458 1.287 170.874C6.171 166.386 10.131 161.568 13.167 156.42C16.335 151.272 18.777 145.86 20.493 140.184C22.341 134.508 23.595 128.634 24.255 122.562C25.047 116.358 25.443 110.088 25.443 103.752V88.704C25.443 87.12 25.905 85.866 26.829 84.942C27.885 83.886 29.205 83.358 30.789 83.358H175.725C177.573 83.358 178.497 84.282 178.497 86.13C178.497 87.978 177.573 88.902 175.725 88.902H37.917C36.333 88.902 35.013 89.43 33.957 90.486C33.033 91.41 32.571 92.664 32.571 94.248V103.752L32.373 113.652C32.373 114.444 32.307 115.236 32.175 116.028C32.175 116.82 32.175 117.546 32.175 118.206C31.779 121.242 33.099 122.76 36.135 122.76H176.121C177.969 122.76 178.893 123.684 178.893 125.532C178.893 127.38 177.969 128.304 176.121 128.304H112.167C110.055 128.304 108.669 128.832 108.009 129.888C107.481 130.944 107.943 132.33 109.395 134.046C110.055 134.838 111.045 136.026 112.365 137.61C113.685 139.062 115.137 140.58 116.721 142.164C118.305 143.616 119.889 144.936 121.473 146.124C123.057 147.18 124.311 147.708 125.235 147.708C126.555 147.708 127.611 147.312 128.403 146.52C133.551 142.824 138.303 138.798 142.659 134.442C144.243 133.122 145.827 133.122 147.411 134.442C148.071 135.102 148.335 135.894 148.203 136.818C148.203 137.61 147.873 138.336 147.213 138.996C146.157 140.052 145.101 141.042 144.045 141.966C142.989 142.758 141.867 143.682 140.679 144.738C139.755 145.398 138.831 146.124 137.907 146.916C137.115 147.576 136.323 148.236 135.531 148.896C134.079 149.952 133.353 151.14 133.353 152.46C133.353 153.78 134.145 154.968 135.729 156.024C142.065 159.852 148.731 163.086 155.727 165.726C162.723 168.366 169.851 170.412 177.111 171.864C179.487 172.524 180.147 173.91 179.091 176.022C177.771 178.002 175.989 178.794 173.745 178.398ZM48.807 106.524C48.807 104.676 49.731 103.752 51.579 103.752H148.005C149.853 103.752 150.777 104.676 150.777 106.524C150.777 108.372 149.853 109.296 148.005 109.296H51.579C49.731 109.296 48.807 108.372 48.807 106.524Z" fill="#309E66"/>
</svg>
