<svg width="116" height="145" viewBox="0 0 116 145" fill="none" xmlns="http://www.w3.org/2000/svg">
<path d="M65.208 144.723C61.644 144.723 57.816 144.459 53.724 143.931C49.632 143.271 45.804 142.149 42.24 140.565C38.676 138.849 35.706 136.539 33.33 133.635C30.954 130.731 29.766 127.035 29.766 122.547C29.766 119.775 30.294 117.267 31.35 115.023C32.538 112.779 34.056 110.865 35.904 109.281C37.884 107.697 40.062 106.509 42.438 105.717C44.946 104.925 47.52 104.529 50.16 104.529C53.724 104.529 56.892 105.321 59.664 106.905C62.436 108.357 64.812 110.337 66.792 112.845C68.772 115.221 70.356 117.927 71.544 120.963C72.732 123.999 73.59 127.101 74.118 130.269C74.382 132.249 75.042 133.767 76.098 134.823C77.286 135.747 78.804 135.879 80.652 135.219C88.968 132.975 95.634 128.751 100.65 122.547C105.798 116.211 108.372 108.687 108.372 99.9748C108.372 94.5628 107.448 89.7448 105.6 85.5208C103.752 81.2968 101.178 77.7328 97.878 74.8288C94.578 71.7928 90.75 69.4828 86.394 67.8988C82.038 66.3148 77.286 65.5228 72.138 65.5228C63.03 65.5228 54.384 67.0408 46.2 70.0768C38.016 73.1128 30.558 77.6008 23.826 83.5408L10.362 94.4308L6.006 97.5988C5.214 98.2588 4.356 98.5888 3.432 98.5888C2.508 98.4568 1.716 97.9288 1.056 97.0048C-0.528 95.2888 -0.329999 93.7708 1.65 92.4508C8.646 87.8308 15.642 82.4848 22.638 76.4128C29.766 70.2088 36.63 63.6088 43.23 56.6128C49.962 49.6168 56.298 42.4228 62.238 35.0308C68.178 27.6388 73.392 20.3128 77.88 13.0528C79.068 11.2048 79.332 9.88477 78.672 9.09277C78.144 8.16878 76.758 7.97077 74.514 8.49877C73.458 8.76277 72.336 9.02677 71.148 9.29077C69.96 9.42277 68.772 9.62077 67.584 9.88477C61.908 10.8088 55.968 11.7988 49.764 12.8548C46.728 13.3828 43.692 13.9108 40.656 14.4388C37.62 14.8348 34.65 15.1648 31.746 15.4288C27.126 15.8248 23.232 16.2208 20.064 16.6168C17.688 16.8808 16.302 15.7588 15.906 13.2508C15.246 11.0068 16.17 9.88477 18.678 9.88477C27.918 9.88477 37.62 9.15877 47.784 7.70678C57.948 6.12277 67.584 4.20877 76.692 1.96477C78.012 1.70077 79.2 1.43677 80.256 1.17277C81.312 0.908769 82.302 0.644772 83.226 0.380776C85.074 -0.279232 86.79 -0.0812343 88.374 0.974768C89.958 2.29477 90.288 3.87877 89.364 5.72677C83.82 16.0228 77.352 25.7248 69.96 34.8328C62.568 43.8088 54.912 52.5868 46.992 61.1668C44.88 63.4108 44.286 64.5328 45.21 64.5328C46.134 64.5328 47.256 64.2028 48.576 63.5428C52.404 62.0908 56.298 60.9028 60.258 59.9788C64.218 59.0548 68.244 58.5928 72.336 58.5928C78.54 58.5928 84.216 59.5828 89.364 61.5628C94.644 63.5428 99.198 66.3808 103.026 70.0768C106.986 73.7728 110.022 78.1288 112.134 83.1448C114.378 88.1608 115.5 93.7708 115.5 99.9748C115.5 107.103 114.114 113.439 111.342 118.983C108.57 124.527 104.808 129.213 100.056 133.041C95.436 136.869 90.09 139.773 84.018 141.753C78.078 143.733 71.808 144.723 65.208 144.723ZM65.01 137.793H66.594L66.792 137.595C67.188 137.595 67.386 137.397 67.386 137.001C67.65 129.477 66.066 123.339 62.634 118.587C59.07 113.835 54.912 111.459 50.16 111.459C46.728 111.459 43.626 112.383 40.854 114.231C38.082 115.947 36.696 118.719 36.696 122.547C36.696 125.847 37.686 128.487 39.666 130.467C41.778 132.447 44.286 133.965 47.19 135.021C50.226 136.077 53.328 136.803 56.496 137.199C59.796 137.595 62.634 137.793 65.01 137.793Z" fill="#309E66"/>
</svg>
