<svg width="107" height="153" viewBox="0 0 107 153" fill="none" xmlns="http://www.w3.org/2000/svg">
<path d="M103.356 147.708C98.34 148.5 93.39 149.226 88.506 149.886C83.622 150.546 78.804 151.074 74.052 151.47C63.756 152.394 54.186 152.592 45.342 152.064C39.798 151.668 34.32 150.942 28.908 149.886C23.496 148.698 18.612 146.85 14.256 144.342C10.032 141.702 6.6 138.336 3.96 134.244C1.32 130.02 0 124.674 0 118.206C0 113.058 1.386 108.372 4.158 104.148C6.93 99.792 10.362 95.898 14.454 92.466C18.678 89.034 23.166 85.998 27.918 83.358C32.802 80.718 37.29 78.408 41.382 76.428C43.098 75.768 44.154 74.712 44.55 73.26C45.078 71.808 44.946 70.29 44.154 68.706C42.174 63.954 40.59 58.938 39.402 53.658C38.346 48.246 37.554 42.702 37.026 37.026C36.63 31.35 36.366 25.74 36.234 20.196C36.102 14.652 36.036 9.306 36.036 4.158C36.036 1.386 37.422 0 40.194 0C42.966 0 44.22 1.386 43.956 4.158C43.692 7.98599 43.494 11.814 43.362 15.642C43.23 19.47 43.296 23.298 43.56 27.126C43.692 33.594 44.352 40.458 45.54 47.718C46.728 54.978 48.642 61.578 51.282 67.518C51.81 68.706 52.668 69.564 53.856 70.092C55.044 70.488 56.298 70.422 57.618 69.894C63.03 67.782 68.442 66 73.854 64.548C79.266 62.964 84.744 61.446 90.288 59.994C91.476 59.73 92.532 59.862 93.456 60.39C94.512 60.918 95.304 61.71 95.832 62.766C96.756 65.142 95.898 66.66 93.258 67.32C87.186 68.376 80.454 69.894 73.062 71.874C65.67 73.854 58.278 76.296 50.886 79.2C43.494 82.104 36.498 85.536 29.898 89.496C23.43 93.324 18.084 97.68 13.86 102.564C9.24 107.976 6.93 113.124 6.93 118.008C6.93 123.948 8.514 128.7 11.682 132.264C14.85 135.828 18.744 138.6 23.364 140.58C28.116 142.56 33.198 143.88 38.61 144.54C44.154 145.068 49.236 145.332 53.856 145.332C62.568 145.332 71.148 144.804 79.596 143.748C88.176 142.56 96.69 141.174 105.138 139.59C106.59 139.326 107.118 139.854 106.722 141.174L106.128 142.956V143.154L105.93 143.352V143.55L105.732 145.332C105.468 146.652 104.676 147.444 103.356 147.708Z" fill="#309E66"/>
</svg>
