<svg width="178" height="180" viewBox="0 0 178 180" fill="none" xmlns="http://www.w3.org/2000/svg">
<path d="M43.164 97.812V91.674C43.164 90.09 42.636 88.836 41.58 87.912C40.656 86.856 39.402 86.328 37.818 86.328H2.97C0.99 86.328 0 85.338 0 83.358C0 81.51 0.99 80.586 2.97 80.586H38.214C41.514 80.586 43.164 78.87 43.164 75.438C43.164 72.138 41.514 70.488 38.214 70.488H18.414C16.83 70.488 15.51 70.026 14.454 69.102C13.53 68.046 13.068 66.726 13.068 65.142V34.056C13.068 32.472 13.53 31.218 14.454 30.294C15.51 29.238 16.83 28.71 18.414 28.71H38.214C41.514 28.71 43.164 26.994 43.164 23.562C43.164 20.262 41.514 18.612 38.214 18.612H5.148C3.168 18.612 2.178 17.622 2.178 15.642C2.178 13.794 3.168 12.87 5.148 12.87H37.818C39.402 12.87 40.656 12.408 41.58 11.484C42.636 10.428 43.164 9.108 43.164 7.524V3.564C43.164 1.188 44.352 0 46.728 0C49.104 0 50.292 1.188 50.292 3.564V7.524C50.292 9.108 50.754 10.428 51.678 11.484C52.734 12.408 54.054 12.87 55.638 12.87H87.12C88.968 12.87 89.892 13.794 89.892 15.642C89.892 17.622 88.968 18.612 87.12 18.612H55.44C52.008 18.612 50.292 20.262 50.292 23.562C50.292 26.994 52.008 28.71 55.44 28.71H74.646C76.23 28.71 77.484 29.238 78.408 30.294C79.464 31.218 79.992 32.472 79.992 34.056V65.142C79.992 66.726 79.464 68.046 78.408 69.102C77.484 70.026 76.23 70.488 74.646 70.488H55.44C52.008 70.488 50.292 72.138 50.292 75.438C50.292 78.87 52.008 80.586 55.44 80.586H89.1C90.948 80.586 91.872 81.51 91.872 83.358C91.872 85.338 90.948 86.328 89.1 86.328H55.638C54.054 86.328 52.734 86.856 51.678 87.912C50.754 88.836 50.292 90.09 50.292 91.674V97.812C50.292 100.188 49.104 101.376 46.728 101.376C44.352 101.376 43.164 100.188 43.164 97.812ZM91.476 43.758C90.816 42.834 90.618 41.976 90.882 41.184C91.146 40.392 91.74 39.732 92.664 39.204C96.096 37.62 98.802 35.904 100.782 34.056C102.894 32.076 104.478 29.898 105.534 27.522C106.59 25.146 107.25 22.572 107.514 19.8C107.91 16.896 108.108 13.728 108.108 10.296V7.326C108.108 5.478 109.098 4.554 111.078 4.554H141.57C143.154 4.554 144.408 5.082 145.332 6.13799C146.388 7.062 146.916 8.316 146.916 9.9V29.898C146.916 31.878 147.312 33.198 148.104 33.858C148.632 34.386 150.216 34.65 152.856 34.65H162.162C164.01 34.65 165.462 34.386 166.518 33.858C167.706 33.198 168.63 31.878 169.29 29.898C169.686 28.446 170.082 26.466 170.478 23.958C170.742 21.45 172.062 20.658 174.438 21.582C176.682 22.638 177.672 24.42 177.408 26.928C177.012 29.304 176.484 31.416 175.824 33.264C175.296 34.98 174.504 36.432 173.448 37.62C172.392 38.808 171.006 39.732 169.29 40.392C167.706 40.92 165.528 41.184 162.756 41.184H151.272C147.84 41.184 145.068 40.788 142.956 39.996C140.976 39.072 139.986 36.696 139.986 32.868V15.642C139.986 14.058 139.458 12.804 138.402 11.88C137.478 10.824 136.224 10.296 134.64 10.296H120.186C118.602 10.296 117.282 10.824 116.226 11.88C115.302 12.804 114.774 14.058 114.642 15.642C114.246 22.77 112.662 28.578 109.89 33.066C107.25 37.554 102.828 41.58 96.624 45.144C95.7 45.672 94.776 45.804 93.852 45.54C92.928 45.276 92.136 44.682 91.476 43.758ZM25.542 46.134H37.818C39.402 46.134 40.656 45.672 41.58 44.748C42.636 43.692 43.164 42.372 43.164 40.788V39.402C43.164 37.818 42.636 36.564 41.58 35.64C40.656 34.584 39.402 34.056 37.818 34.056H25.542C23.958 34.056 22.638 34.584 21.582 35.64C20.658 36.564 20.196 37.818 20.196 39.402V40.788C20.196 42.372 20.658 43.692 21.582 44.748C22.638 45.672 23.958 46.134 25.542 46.134ZM55.638 46.134H67.518C69.102 46.134 70.356 45.672 71.28 44.748C72.336 43.692 72.864 42.372 72.864 40.788V39.402C72.864 37.818 72.336 36.564 71.28 35.64C70.356 34.584 69.102 34.056 67.518 34.056H55.638C54.054 34.056 52.734 34.584 51.678 35.64C50.754 36.564 50.292 37.818 50.292 39.402V40.788C50.292 42.372 50.754 43.692 51.678 44.748C52.734 45.672 54.054 46.134 55.638 46.134ZM171.864 99.594C165.528 97.614 159.192 95.304 152.856 92.664C146.52 90.024 140.58 86.79 135.036 82.962C134.112 82.302 133.122 81.972 132.066 81.972C131.01 81.972 129.954 82.302 128.898 82.962C119.262 89.034 107.91 93.984 94.842 97.812C92.598 98.472 90.948 97.746 89.892 95.634C88.836 93.522 89.43 92.136 91.674 91.476C96.426 90.156 101.244 88.638 106.128 86.922C111.144 85.074 115.83 82.962 120.186 80.586C122.298 79.53 123.42 78.21 123.552 76.626C123.684 75.042 122.958 73.458 121.374 71.874C118.998 69.762 116.754 67.386 114.642 64.746C112.662 62.106 110.814 59.466 109.098 56.826C107.91 54.978 106.326 54.054 104.346 54.054H96.822C94.842 54.054 93.852 53.064 93.852 51.084C93.852 49.104 94.842 48.114 96.822 48.114H156.816C158.004 48.114 159.192 48.576 160.38 49.5H160.578C161.766 50.688 161.898 51.81 160.974 52.866C158.466 56.562 155.76 59.994 152.856 63.162C149.952 66.198 146.85 69.234 143.55 72.27C141.834 73.722 140.976 75.306 140.976 77.022C141.108 78.606 142.164 79.926 144.144 80.982C153.912 86.262 164.142 90.222 174.834 92.862C177.21 93.522 177.936 94.974 177.012 97.218C175.956 99.462 174.24 100.254 171.864 99.594ZM25.542 64.944H37.818C39.402 64.944 40.656 64.482 41.58 63.558C42.636 62.502 43.164 61.182 43.164 59.598V57.024C43.164 55.44 42.636 54.186 41.58 53.262C40.656 52.206 39.402 51.678 37.818 51.678H25.542C23.958 51.678 22.638 52.206 21.582 53.262C20.658 54.186 20.196 55.44 20.196 57.024V59.598C20.196 61.182 20.658 62.502 21.582 63.558C22.638 64.482 23.958 64.944 25.542 64.944ZM55.638 64.944H67.518C69.102 64.944 70.356 64.482 71.28 63.558C72.336 62.502 72.864 61.182 72.864 59.598V57.024C72.864 55.44 72.336 54.186 71.28 53.262C70.356 52.206 69.102 51.678 67.518 51.678H55.638C54.054 51.678 52.734 52.206 51.678 53.262C50.754 54.186 50.292 55.44 50.292 57.024V59.598C50.292 61.182 50.754 62.502 51.678 63.558C52.734 64.482 54.054 64.944 55.638 64.944ZM135.63 71.082C139.458 68.31 142.89 65.274 145.926 61.974C148.038 59.73 148.698 57.882 147.906 56.43C147.114 54.846 145.2 54.054 142.164 54.054H124.344C121.308 54.054 119.394 54.78 118.602 56.232C117.81 57.684 118.338 59.532 120.186 61.776C121.638 63.492 123.09 65.142 124.542 66.726C126.126 68.178 127.776 69.63 129.492 71.082C130.548 71.874 131.604 72.27 132.66 72.27C133.848 72.27 134.838 71.874 135.63 71.082ZM84.942 176.22V144.738C84.942 143.022 84.414 141.702 83.358 140.778C82.434 139.722 81.114 139.26 79.398 139.392C73.854 139.656 68.376 139.854 62.964 139.986C57.552 140.118 52.074 140.316 46.53 140.58C40.59 140.844 34.914 141.042 29.502 141.174C24.09 141.174 18.81 141.306 13.662 141.57C11.154 141.57 9.9 140.382 9.9 138.006C9.636 135.63 10.692 134.442 13.068 134.442C18.084 134.178 23.034 134.046 27.918 134.046C32.802 133.914 37.686 133.782 42.57 133.65C46.002 133.65 49.368 133.65 52.668 133.65C55.968 133.518 59.268 133.386 62.568 133.254C66.264 133.122 68.244 132.462 68.508 131.274C68.904 129.954 67.518 128.37 64.35 126.522L53.856 120.186C50.82 118.47 47.982 116.886 45.342 115.434C42.702 113.982 40.26 112.596 38.016 111.276C35.904 110.22 35.574 108.702 37.026 106.722C38.346 105.006 39.996 104.676 41.976 105.732L54.054 112.86C55.11 113.388 56.034 113.652 56.826 113.652C58.146 113.652 59.334 113.124 60.39 112.068C63.03 109.428 65.538 106.788 67.914 104.148C70.29 101.376 72.6 98.472 74.844 95.436C76.428 93.72 78.144 93.456 79.992 94.644C81.972 95.964 82.17 97.548 80.586 99.396C78.474 102.036 76.296 104.544 74.052 106.92C71.808 109.296 69.498 111.672 67.122 114.048C65.934 115.368 65.406 116.688 65.538 118.008C65.67 119.196 66.462 120.252 67.914 121.176L79.002 128.106C79.662 128.634 80.586 128.898 81.774 128.898C83.094 128.898 84.216 128.502 85.14 127.71C86.592 126.522 88.11 125.268 89.694 123.948C91.278 122.496 92.994 120.978 94.842 119.394L107.712 107.91C109.032 106.722 110.22 105.6 111.276 104.544C112.464 103.488 113.52 102.432 114.444 101.376C116.028 99.792 117.744 99.726 119.592 101.178C121.308 102.63 121.374 104.148 119.79 105.732C116.754 108.504 113.652 111.276 110.484 114.048C107.316 116.82 104.148 119.592 100.98 122.364L94.644 127.314C92.796 128.898 92.004 130.152 92.268 131.076C92.664 131.868 94.05 132.198 96.426 132.066C99.99 131.934 103.422 131.802 106.722 131.67C110.154 131.538 113.586 131.34 117.018 131.076C120.714 130.944 124.344 130.812 127.908 130.68C131.472 130.548 135.036 130.35 138.6 130.086C140.184 129.954 141.108 129.558 141.372 128.898C141.636 128.238 141.108 127.38 139.788 126.324L135.63 122.958C134.574 122.298 133.65 121.638 132.858 120.978C132.066 120.318 131.208 119.658 130.284 118.998C128.436 117.81 128.304 116.424 129.888 114.84C131.34 113.52 132.924 113.388 134.64 114.444C140.58 118.536 146.322 122.958 151.866 127.71C157.41 132.33 162.69 137.148 167.706 142.164C169.29 143.748 169.356 145.398 167.904 147.114C166.452 148.83 164.934 148.896 163.35 147.312L158.202 142.164C157.938 141.9 157.674 141.702 157.41 141.57C157.146 141.306 156.882 141.042 156.618 140.778L153.45 138.006C153.186 137.742 152.922 137.544 152.658 137.412C152.394 137.148 152.13 136.884 151.866 136.62C150.678 135.696 149.424 135.3 148.104 135.432L122.76 137.016C118.536 137.28 114.312 137.544 110.088 137.808C105.864 138.072 101.574 138.336 97.218 138.6C95.634 138.6 94.38 139.128 93.456 140.184C92.532 141.108 92.07 142.362 92.07 143.946V176.22C92.07 178.596 90.882 179.784 88.506 179.784C86.13 179.784 84.942 178.596 84.942 176.22ZM10.494 173.052C9.174 170.808 9.768 169.488 12.276 169.092C20.46 166.584 28.644 163.812 36.828 160.776C45.012 157.608 52.8 153.78 60.192 149.292C60.984 148.896 61.776 148.764 62.568 148.896C63.492 149.028 64.284 149.49 64.944 150.282C66 152.13 65.67 153.582 63.954 154.638C56.166 158.862 48.18 162.69 39.996 166.122C31.944 169.554 23.76 172.59 15.444 175.23C13.2 175.89 11.55 175.164 10.494 173.052ZM162.954 175.23C154.638 172.458 146.388 169.356 138.204 165.924C130.152 162.624 122.232 158.862 114.444 154.638C112.728 153.582 112.464 152.13 113.652 150.282C114.18 149.49 114.84 149.028 115.632 148.896C116.556 148.764 117.414 148.896 118.206 149.292C125.73 153.78 133.518 157.608 141.57 160.776C149.622 163.812 157.806 166.584 166.122 169.092C168.498 169.488 169.158 170.808 168.102 173.052C166.782 175.164 165.066 175.89 162.954 175.23Z" fill="#309E66"/>
</svg>
