<svg width="1678" height="1193" viewBox="0 0 1678 1193" fill="none" xmlns="http://www.w3.org/2000/svg">
<path d="M870.037 2.90101C816.193 -1.05172 762.194 -0.971852 708.595 3.18155C612.192 10.639 516.781 31.3025 425.028 64.5869C301.641 108.822 189.828 190.104 110.148 293.463C31.8372 395.082 -6.92707 506.15 1.01813 606.273C11.2402 714.651 45.9537 811.754 104.215 894.89C162.078 977.456 241.9 1044.52 341.498 1094.17C521.959 1184.16 758.182 1212.97 1029.69 1178.93C1161.09 1134.64 1273.43 1085.39 1365.57 1031.55C1559.81 918.063 1664.55 783.65 1676.9 632.064C1686.27 490.83 1592.76 332.013 1426.79 207.276C1299.52 111.607 1144.62 45.6209 978.854 16.4349C942.764 10.0817 906.438 5.5732 870.037 2.90101Z" fill="#FFFEF8"/>
</svg>
